<svg xmlns="http://www.w3.org/2000/svg" xmlns:xlink="http://www.w3.org/1999/xlink" viewBox="0,0,256,256" width="400px" height="400px" fill-rule="nonzero"><g fill="#339af0" fill-rule="nonzero" stroke="none" stroke-width="1" stroke-linecap="butt" stroke-linejoin="miter" stroke-miterlimit="10" stroke-dasharray="" stroke-dashoffset="0" font-family="none" font-weight="none" font-size="none" text-anchor="none" style="mix-blend-mode: normal"><g transform="scale(2.56,2.56)"><path d="M57.552,37.041c2.119,-0.859 4.15,-1.614 6.003,-2.181c2.005,1.27 3.978,2.574 5.862,3.948c1.488,1.084 2.914,2.197 4.301,3.33c1.719,1.406 3.343,2.839 4.866,4.29c5.765,-6.496 8.288,-12.568 6.058,-16.428c-4.137,-7.168 -22.969,-4.04 -42.083,6.973c0.313,-2.256 0.677,-4.395 1.11,-6.279c2.103,-1.104 4.219,-2.158 6.351,-3.105c1.683,-0.745 3.359,-1.423 5.032,-2.058c2.077,-0.784 4.131,-1.478 6.149,-2.07c-2.744,-8.243 -6.741,-13.461 -11.198,-13.461c-8.277,0 -14.986,17.874 -15.003,39.938c-1.8,-1.403 -3.47,-2.787 -4.886,-4.105c0.094,-2.373 0.24,-4.732 0.484,-7.054c0.195,-1.829 0.449,-3.62 0.736,-5.388c0.357,-2.19 0.784,-4.316 1.282,-6.36c-8.512,-1.745 -15.028,-0.891 -17.258,2.969c-4.138,7.168 7.984,21.914 27.09,32.959c-2.116,0.859 -4.15,1.614 -6.003,2.181c-2.005,-1.27 -3.978,-2.574 -5.862,-3.948c-1.488,-1.084 -2.914,-2.197 -4.301,-3.33c-1.719,-1.406 -3.343,-2.839 -4.866,-4.29c-5.765,6.496 -8.288,12.568 -6.058,16.428c4.137,7.168 22.969,4.04 42.083,-6.973c-0.313,2.256 -0.677,4.395 -1.11,6.279c-2.103,1.104 -4.219,2.158 -6.351,3.105c-1.683,0.745 -3.359,1.423 -5.032,2.058c-2.077,0.784 -4.131,1.478 -6.149,2.07c2.744,8.243 6.741,13.461 11.198,13.461c8.277,0 14.986,-17.874 15.003,-39.938c1.8,1.403 3.47,2.787 4.886,4.105c-0.094,2.373 -0.24,4.732 -0.484,7.054c-0.195,1.829 -0.449,3.62 -0.736,5.388c-0.357,2.19 -0.784,4.316 -1.282,6.36c8.512,1.745 15.028,0.891 17.258,-2.969c4.137,-7.168 -7.985,-21.914 -27.09,-32.959zM50,55c-2.764,0 -5,-2.243 -5,-5c0,-2.757 2.236,-5 5,-5c2.764,0 5,2.243 5,5c0,2.757 -2.236,5 -5,5z"></path></g></g></svg>