<svg xmlns="http://www.w3.org/2000/svg"  viewBox="0 0 64 64" width="512px" height="512px"><linearGradient id="t9sysY5FMVGdnAaD7sHtqa" x1="11" x2="11" y1="28" y2="52.835" gradientUnits="userSpaceOnUse"><stop offset="0" stop-color="#8ab4ff"/><stop offset="1" stop-color="#e492ff"/></linearGradient><path fill="url(#t9sysY5FMVGdnAaD7sHtqa)" d="M10,32h2v22h-2V32z"/><linearGradient id="t9sysY5FMVGdnAaD7sHtqb" x1="25" x2="25" y1="28" y2="52.835" gradientUnits="userSpaceOnUse"><stop offset="0" stop-color="#8ab4ff"/><stop offset="1" stop-color="#e492ff"/></linearGradient><path fill="url(#t9sysY5FMVGdnAaD7sHtqb)" d="M24,32h2v22h-2V32z"/><linearGradient id="t9sysY5FMVGdnAaD7sHtqc" x1="39" x2="39" y1="28" y2="52.835" gradientUnits="userSpaceOnUse"><stop offset="0" stop-color="#8ab4ff"/><stop offset="1" stop-color="#e492ff"/></linearGradient><path fill="url(#t9sysY5FMVGdnAaD7sHtqc)" d="M38,32h2v22h-2V32z"/><linearGradient id="t9sysY5FMVGdnAaD7sHtqd" x1="53" x2="53" y1="28" y2="52.835" gradientUnits="userSpaceOnUse"><stop offset="0" stop-color="#8ab4ff"/><stop offset="1" stop-color="#e492ff"/></linearGradient><path fill="url(#t9sysY5FMVGdnAaD7sHtqd)" d="M52,32h2v22h-2V32z"/><linearGradient id="t9sysY5FMVGdnAaD7sHtqe" x1="11" x2="11" y1="8.957" y2="52.797" gradientUnits="userSpaceOnUse"><stop offset="0" stop-color="#1A6DFF"/><stop offset="1" stop-color="#C822FF"/></linearGradient><path fill="url(#t9sysY5FMVGdnAaD7sHtqe)" d="M14,22H8c-1.105,0-2,0.895-2,2v30c0,1.105,0.895,2,2,2h6c1.105,0,2-0.895,2-2V24 C16,22.895,15.105,22,14,22z M14,54H8V28h6V54z M14,26H8v-2h6V26z"/><linearGradient id="t9sysY5FMVGdnAaD7sHtqf" x1="25" x2="25" y1="8.957" y2="52.797" gradientUnits="userSpaceOnUse"><stop offset="0" stop-color="#1A6DFF"/><stop offset="1" stop-color="#C822FF"/></linearGradient><path fill="url(#t9sysY5FMVGdnAaD7sHtqf)" d="M28,22h-6c-1.103,0-2,0.899-2,2.001v30C20,55.104,20.897,56,22,56h6c1.103,0,2-0.896,2-1.999 v-30C30,22.899,29.102,22,28,22z M28,54h-6V28h6V54z M28,26h-6v-2h6V26z"/><linearGradient id="t9sysY5FMVGdnAaD7sHtqg" x1="39" x2="39" y1="8.957" y2="52.797" gradientUnits="userSpaceOnUse"><stop offset="0" stop-color="#1A6DFF"/><stop offset="1" stop-color="#C822FF"/></linearGradient><path fill="url(#t9sysY5FMVGdnAaD7sHtqg)" d="M42,22h-6c-1.103,0-2,0.899-2,2.001v30C34,55.104,34.897,56,36,56h6c1.103,0,2-0.896,2-1.999 v-30C44,22.899,43.102,22,42,22z M42,54h-6V28h6V54z M42,26h-6v-2h6V26z"/><linearGradient id="t9sysY5FMVGdnAaD7sHtqh" x1="53" x2="53" y1="8.957" y2="52.797" gradientUnits="userSpaceOnUse"><stop offset="0" stop-color="#1A6DFF"/><stop offset="1" stop-color="#C822FF"/></linearGradient><path fill="url(#t9sysY5FMVGdnAaD7sHtqh)" d="M56,22h-6c-1.103,0-2,0.899-2,2.001v30C48,55.104,48.897,56,50,56h6c1.103,0,2-0.896,2-1.999 v-30C58,22.899,57.102,22,56,22z M56,54h-6V28h6V54z M56,26h-6v-2h6V26z"/><linearGradient id="t9sysY5FMVGdnAaD7sHtqi" x1="31.505" x2="31.505" y1="8.957" y2="52.797" gradientUnits="userSpaceOnUse"><stop offset="0" stop-color="#1A6DFF"/><stop offset="1" stop-color="#C822FF"/></linearGradient><path fill="url(#t9sysY5FMVGdnAaD7sHtqi)" d="M49.605,16.315l5.412-2.705c0.612-0.308,0.993-0.925,0.993-1.61s-0.381-1.303-0.993-1.61 c-0.001,0-0.001,0-0.001,0l-5.41-2.705c-0.562-0.28-1.216-0.252-1.752,0.078C47.319,8.093,47,8.666,47,9.294V11H14.858 C14.411,9.279,12.859,8,11,8c-2.206,0-4,1.794-4,4s1.794,4,4,4c1.859,0,3.411-1.279,3.858-3H47v1.706 c0,0.628,0.319,1.201,0.854,1.531c0.291,0.18,0.617,0.27,0.944,0.27C49.074,16.507,49.35,16.443,49.605,16.315z M49,9.618 L53.765,12L49,14.382V9.618z M11,14c-1.103,0-2-0.897-2-2s0.897-2,2-2s2,0.897,2,2S12.103,14,11,14z"/></svg>