<svg xmlns="http://www.w3.org/2000/svg"  viewBox="0 0 64 64" width="512px" height="512px"><linearGradient id="7U6pf1~cs5MC4ZLTc9JWMa" x1="32" x2="32" y1="26.75" y2="37.244" gradientUnits="userSpaceOnUse" spreadMethod="reflect"><stop offset="0" stop-color="#6dc7ff"/><stop offset="1" stop-color="#e6abff"/></linearGradient><path fill="url(#7U6pf1~cs5MC4ZLTc9JWMa)" d="M35.033,32L32,35.033c-0.838,0.838-2.195,0.838-3.033,0l0,0c-0.838-0.838-0.838-2.195,0-3.033 L32,28.967c0.838-0.838,2.195-0.838,3.033,0l0,0C35.871,29.805,35.871,31.162,35.033,32z"/><linearGradient id="7U6pf1~cs5MC4ZLTc9JWMb" x1="32" x2="32" y1="2.75" y2="59.77" gradientUnits="userSpaceOnUse" spreadMethod="reflect"><stop offset="0" stop-color="#1a6dff"/><stop offset="1" stop-color="#c822ff"/></linearGradient><path fill="url(#7U6pf1~cs5MC4ZLTc9JWMb)" d="M53.938,10.062c-5.404-5.404-14.203-5.406-19.611,0l-3.033,3.033 c-3.668,3.668-4.963,9.104-3.401,14.018l-0.78,0.78c-4.912-1.561-10.349-0.266-14.017,3.401l-3.033,3.033 c-5.407,5.407-5.407,14.205,0,19.612c2.703,2.703,6.255,4.055,9.806,4.055c3.552,0,7.104-1.352,9.807-4.055l3.033-3.033 c3.668-3.668,4.962-9.105,3.401-14.017l0.785-0.785c1.371,0.436,2.781,0.661,4.184,0.661c3.624,0,7.187-1.415,9.829-4.058 l3.032-3.033C59.345,24.267,59.345,15.469,53.938,10.062z M35.74,17.542l3.032-3.033c2.955-2.954,7.764-2.953,10.719,0 c2.954,2.955,2.954,7.764,0,10.718l-3.033,3.033c-1.731,1.73-4.196,2.498-6.589,2.107c-0.023-1.273-0.428-2.538-1.209-3.614 l3.145-3.145l-1.414-1.414l-3.145,3.145c-1.076-0.781-2.34-1.186-3.614-1.209C33.244,21.739,34.011,19.271,35.74,17.542z M33.517,26.124c1.117,0,2.233,0.425,3.084,1.275c1.7,1.7,1.7,4.468,0,6.168l-3.033,3.033c-1.701,1.701-4.467,1.701-6.168,0 c-1.7-1.7-1.7-4.468,0-6.168l3.033-3.033C31.283,26.549,32.4,26.124,33.517,26.124z M28.26,46.458l-3.033,3.033 c-2.955,2.955-7.763,2.955-10.718,0c-1.432-1.432-2.22-3.335-2.22-5.359s0.788-3.927,2.22-5.358l3.033-3.033 c1.729-1.729,4.196-2.493,6.589-2.106c0.023,1.273,0.428,2.537,1.209,3.612l-3.146,3.146l1.414,1.414l3.146-3.145 c1.076,0.781,2.34,1.186,3.614,1.209C30.757,42.261,29.99,44.729,28.26,46.458z M31.293,49.491l-3.033,3.033 c-4.628,4.624-12.156,4.626-16.784,0c-4.627-4.628-4.627-12.156,0-16.784l3.033-3.033c2.897-2.895,7.084-4.064,11.02-3.178 c-0.519,0.645-0.894,1.367-1.125,2.125c-3.006-0.474-6.103,0.5-8.276,2.673l-3.033,3.033c-1.81,1.809-2.806,4.214-2.806,6.772 s0.996,4.964,2.806,6.773c1.867,1.867,4.32,2.801,6.773,2.801s4.905-0.934,6.772-2.801l3.033-3.033 c2.174-2.174,3.146-5.271,2.672-8.276c0.758-0.231,1.481-0.605,2.125-1.125C35.359,42.405,34.19,46.594,31.293,49.491z M52.524,28.26l-3.032,3.033c-2.897,2.896-7.086,4.067-11.021,3.179c0.519-0.644,0.894-1.367,1.125-2.124 c0.495,0.078,0.992,0.13,1.488,0.13c2.513,0,4.973-0.987,6.789-2.804l3.033-3.033c3.734-3.734,3.734-9.811,0-13.546 c-3.734-3.734-9.813-3.734-13.547,0l-3.032,3.033c-2.175,2.175-3.147,5.271-2.673,8.276c-0.758,0.231-1.481,0.605-2.125,1.125 c-0.888-3.935,0.282-8.123,3.179-11.021l3.033-3.033c4.629-4.627,12.156-4.625,16.783,0C54.765,13.718,56,16.697,56,19.868 C56,23.038,54.765,26.018,52.524,28.26z"/></svg>