<svg xmlns="http://www.w3.org/2000/svg"  viewBox="0 0 64 64" width="512px" height="512px"><linearGradient id="LQnOFGkG8VF3qI6wZPMZaa" x1="32" x2="32" y1="32.255" y2="36.724" gradientUnits="userSpaceOnUse"><stop offset="0" stop-color="#6dc7ff"/><stop offset="1" stop-color="#e6abff"/></linearGradient><circle cx="32" cy="35" r="3" fill="url(#LQnOFGkG8VF3qI6wZPMZaa)"/><linearGradient id="LQnOFGkG8VF3qI6wZPMZab" x1="32" x2="32" y1="6.149" y2="54.327" gradientUnits="userSpaceOnUse"><stop offset="0" stop-color="#1a6dff"/><stop offset="1" stop-color="#c822ff"/></linearGradient><path fill="url(#LQnOFGkG8VF3qI6wZPMZab)" d="M40,26c0-0.737-0.405-1.375-1-1.722V23c0-3.859-3.141-7-7-7s-7,3.141-7,7v1.278 c-0.595,0.347-1,0.985-1,1.722v1.474c-1.854,1.97-3,4.614-3,7.526c0,6.065,4.935,11,11,11s11-4.935,11-11 c0-2.912-1.146-5.557-3-7.526V26z M32,18c2.757,0,5,2.243,5,5v1.298c-0.258,0.155-0.484,0.351-0.65,0.602 C35.014,24.323,33.545,24,32,24c-1.544,0-3.013,0.323-4.348,0.9c-0.168-0.254-0.389-0.468-0.652-0.623V23 C27,20.243,29.243,18,32,18z M32,44c-4.963,0-9-4.037-9-9s4.037-9,9-9s9,4.037,9,9S36.963,44,32,44z"/><linearGradient id="LQnOFGkG8VF3qI6wZPMZac" x1="32" x2="32" y1="6.149" y2="54.327" gradientUnits="userSpaceOnUse"><stop offset="0" stop-color="#1a6dff"/><stop offset="1" stop-color="#c822ff"/></linearGradient><path fill="url(#LQnOFGkG8VF3qI6wZPMZac)" d="M32,6C17.664,6,6,17.663,6,32c0,14.337,11.664,26,26,26s26-11.663,26-26 C58,17.663,46.336,6,32,6z M32,56C18.767,56,8,45.233,8,32C8,18.767,18.767,8,32,8c13.233,0,24,10.767,24,24 C56,45.233,45.233,56,32,56z"/><linearGradient id="LQnOFGkG8VF3qI6wZPMZad" x1="32" x2="32" y1="6.149" y2="54.327" gradientUnits="userSpaceOnUse"><stop offset="0" stop-color="#1a6dff"/><stop offset="1" stop-color="#c822ff"/></linearGradient><path fill="url(#LQnOFGkG8VF3qI6wZPMZad)" d="M32,31c-2.206,0-4,1.794-4,4c0,1.474,0.81,2.75,2,3.444V39c0,1.103,0.897,2,2,2s2-0.897,2-2 v-0.556c1.19-0.694,2-1.97,2-3.444C36,32.794,34.206,31,32,31z M32,37c-1.103,0-2-0.897-2-2s0.897-2,2-2s2,0.897,2,2 S33.103,37,32,37z"/><linearGradient id="LQnOFGkG8VF3qI6wZPMZae" x1="32" x2="32" y1="6.149" y2="54.327" gradientUnits="userSpaceOnUse"><stop offset="0" stop-color="#1a6dff"/><stop offset="1" stop-color="#c822ff"/></linearGradient><path fill="url(#LQnOFGkG8VF3qI6wZPMZae)" d="M32,10c-12.131,0-22,9.869-22,22s9.869,22,22,22s22-9.869,22-22S44.131,10,32,10z M32,52 c-11.028,0-20-8.972-20-20s8.972-20,20-20s20,8.972,20,20S43.028,52,32,52z"/></svg>